# xmcd
#
# Track frame offsets: 
#        150
#        13165
#        22936
#        33838
#        46363
#        58443
#        67696
#        77886
#        87887
#        98892
#        109288
#        119735
#        130952
#        142374
#        152303
#        163881
#        174436
#        183460
#        192344
#        202981
#        218221
#        228441
#        238390
#        248668
#        259945
#
# Disc length: 3603 seconds
#
# Revision: 1
# Processed by: cddbd v1.5.2PL0 Copyright (c) Steve Scherf et al.
# Submitted via: ExactAudioCopyFreeDBPlugin 1.0
#
DISCID=6a0e1119
DTITLE=Various Artist - Mod:  The Early Years [Real Gone Music]
DYEAR=2014
DGENRE=Rhythm and Blues
TTITLE0=Booker T. and The M.G.'s  - Green Onions
TTITLE1=Benny Spellman - Fortune Teller
TTITLE2=Don and Juan - What I Really Meant to Say
TTITLE3=Gino Parks - Fire
TTITLE4=McKinley Mitchell - The Town I Live In
TTITLE5=Bill Black's Combo - Little Queenie
TTITLE6=Della Reese - Ninety Nine and a Half Won't Do
TTITLE7=Bunker Hill - Red Ridin' Hood and the Wolf
TTITLE8=Irma Thomas - I Did My Part
TTITLE9=Orlons - Don't Hang Up
TTITLE10=Bill Doggett - Oops
TTITLE11=The "5" Royales - Catch That Teardrop
TTITLE12=Darren Lee - Everybody's Twistin'
TTITLE13=Hank Blackman and The Killers - Itchy Koo
TTITLE14=Ronnie Savoy - Big Hand, Little Hand
TTITLE15=Richie Barrett - Some Other Guy
TTITLE16=Bobby John - Shadows of Love
TTITLE17=Fred Bridges - Baby Don't You Weep
TTITLE18=Ray and Bob - Air Travel
TTITLE19=Chuck Jackson - Any Day Now
TTITLE20=Mr. Lee and the Frank Andrade Five - Hey, Mrs. Jones
TTITLE21=B.B. King - I'm Gonna Sit in Till You Give In
TTITLE22=Erma Franklin - Don't Wait Too Long
TTITLE23=The Falcons - Swim
TTITLE24=Chick Carbo - In the Night
EXTD=
EXTT0=
EXTT1=
EXTT2=
EXTT3=
EXTT4=
EXTT5=
EXTT6=
EXTT7=
EXTT8=
EXTT9=
EXTT10=
EXTT11=
EXTT12=
EXTT13=
EXTT14=
EXTT15=
EXTT16=
EXTT17=
EXTT18=
EXTT19=
EXTT20=
EXTT21=
EXTT22=
EXTT23=
EXTT24=
PLAYORDER=
